<svg xmlns="http://www.w3.org/2000/svg" width="548" height="408" viewBox="0 0 548 408">
<g>
<path d="M 0.00 0.00 L 548.00 0.00 L 548.00 408.00 L 0.00 408.00 ZM 191.26 270.04 C193.04,270.47 230.50,270.75 274.50,270.66 C352.34,270.50 354.61,270.45 358.48,268.50 C360.67,267.40 363.79,264.59 365.42,262.25 C368.05,258.47 368.45,256.89 369.07,247.75 C369.46,242.11 371.82,226.70 374.32,213.50 C376.83,200.30 379.81,183.88 380.95,177.00 C383.69,160.40 383.80,160.00 385.54,160.00 C388.20,160.00 395.93,151.97 397.13,147.97 C398.30,144.06 397.68,139.00 396.03,139.00 C395.51,139.00 394.23,140.91 393.18,143.25 C390.24,149.77 386.00,153.21 380.30,153.70 C372.78,154.35 368.40,150.79 365.60,141.75 C364.77,139.07 363.00,139.67 363.00,142.63 C363.00,144.41 361.58,146.69 358.63,149.63 C354.62,153.65 353.85,154.00 349.17,154.00 C344.92,154.00 343.49,153.49 340.64,150.99 C338.75,149.33 336.47,146.13 335.56,143.87 L 333.92 139.76 L 331.39 144.84 C325.17,157.32 311.22,157.13 305.07,144.49 L 302.65 139.50 L 301.68 142.76 C301.14,144.55 298.76,147.81 296.38,150.01 C292.50,153.58 291.51,154.00 286.90,154.00 C282.27,154.00 281.39,153.62 277.88,150.12 C275.74,147.98 273.72,144.83 273.37,143.12 C272.57,139.10 271.70,139.18 270.17,143.41 C269.49,145.29 267.15,148.44 264.96,150.41 C261.54,153.51 260.32,154.00 256.07,154.00 C250.03,154.00 246.25,151.20 243.01,144.29 L 240.79 139.57 L 239.49 143.35 C234.74,157.16 218.93,157.68 212.99,144.23 L 210.90 139.51 L 209.11 143.52 C208.12,145.72 205.65,148.98 203.62,150.76 C200.53,153.48 199.13,154.00 195.00,154.00 C190.94,154.00 189.46,153.47 186.64,150.99 C184.75,149.33 182.49,146.18 181.61,143.99 C179.60,138.96 178.43,138.93 177.63,143.89 C176.18,153.00 164.15,157.37 157.03,151.37 C155.31,149.92 152.79,146.55 151.43,143.87 C150.08,141.19 148.52,139.00 147.98,139.00 C146.47,139.00 146.82,147.75 148.46,150.93 C150.26,154.40 155.15,158.62 159.46,160.42 C162.62,161.74 162.72,161.98 164.86,173.63 C174.55,226.41 177.00,242.05 177.00,251.13 C177.01,255.64 177.57,258.42 178.92,260.63 C181.37,264.66 187.12,269.04 191.26,270.04 ZM 166.75 133.23 C179.26,133.38 189.81,133.38 190.19,133.23 C190.57,133.08 201.37,133.00 214.19,133.05 C227.01,133.10 238.18,133.14 239.00,133.14 C239.82,133.13 260.30,133.14 284.50,133.16 C308.70,133.17 329.17,133.17 330.00,133.15 C330.83,133.14 347.11,133.10 366.18,133.08 C386.23,133.05 401.10,132.64 401.43,132.11 C402.05,131.11 397.94,124.55 384.13,104.48 C373.89,89.61 373.22,88.90 366.46,85.79 C361.93,83.70 360.00,83.49 344.00,83.40 L 326.50 83.29 L 326.00 67.71 C325.46,50.79 324.99,49.32 318.62,44.56 C315.96,42.58 314.45,42.49 277.48,42.22 C235.49,41.91 233.96,42.08 230.33,47.62 C228.81,49.94 228.42,53.17 228.00,66.95 L 227.50 83.50 L 182.50 83.50 L 177.03 86.60 C171.99,89.46 170.45,91.34 157.79,110.10 C150.22,121.32 144.02,131.05 144.01,131.73 C144.00,132.66 149.54,133.03 166.75,133.23 ZM 354.85 257.47 L 351.85 260.00 L 272.67 259.96 C208.88,259.94 193.04,259.67 191.11,258.60 C187.63,256.68 186.08,253.20 186.04,247.25 L 186.00 242.00 L 201.85 242.00 C202.67,242.00 203.46,242.00 204.22,242.00 C213.50,242.02 217.88,242.02 219.74,239.86 C221.41,237.91 221.05,234.22 220.35,227.21 C220.29,226.57 220.22,225.90 220.15,225.21 C216.86,191.33 214.69,174.34 213.37,172.25 C211.98,170.05 211.57,170.00 193.01,170.00 C192.24,170.00 191.49,170.00 190.77,170.00 C178.51,170.01 174.69,170.01 173.10,168.13 C172.29,167.16 172.07,165.70 171.60,163.50 C171.01,160.73 171.30,160.32 175.50,158.10 L 180.04 155.70 L 184.90 158.35 C192.59,162.53 201.98,161.71 208.15,156.31 C209.61,155.04 210.43,155.23 215.23,157.94 C223.50,162.60 232.72,161.95 239.24,156.24 C240.81,154.85 241.36,154.98 245.07,157.55 C248.11,159.65 250.67,160.49 255.04,160.81 C260.17,161.18 261.60,160.85 266.22,158.24 L 271.53 155.25 L 276.51 158.12 C283.97,162.41 294.29,161.67 300.07,156.44 C301.53,155.11 302.33,155.28 307.46,157.98 C315.01,161.95 321.38,162.06 328.73,158.34 L 333.99 155.68 L 338.88 158.34 C346.48,162.47 356.33,161.84 361.63,156.87 L 363.77 154.87 L 368.87 157.69 C374.30,160.68 375.47,163.61 372.72,167.36 C370.99,169.73 370.07,169.84 349.79,169.92 C333.98,169.99 331.97,170.19 331.15,171.75 C330.64,172.71 329.72,179.12 329.09,186.00 C328.47,192.88 326.78,207.39 325.33,218.25 C325.09,220.07 324.85,221.74 324.64,223.29 C323.28,233.10 322.63,237.80 324.68,240.04 C326.56,242.10 330.73,242.07 338.74,242.02 C340.11,242.01 341.59,242.00 343.20,242.00 L 360.09 242.00 L 359.48 245.75 C359.14,247.81 358.64,250.73 358.36,252.22 C358.08,253.72 356.50,256.08 354.85,257.47 ZM 312.82 79.54 L 312.50 83.50 L 276.77 83.76 L 241.04 84.03 L 240.40 81.46 C240.05,80.05 239.98,76.58 240.25,73.75 C240.63,69.78 241.35,68.09 243.43,66.31 C246.10,64.01 246.19,64.00 276.60,64.00 L 307.09 64.00 L 309.48 66.39 C312.15,69.06 313.31,73.62 312.82,79.54 ZM 300.66 126.75 L 301.23 131.00 L 277.00 131.00 L 277.00 93.00 L 297.68 93.00 L 298.89 107.75 C299.55,115.86 300.35,124.41 300.66,126.75 ZM 237.59 130.23 C236.99,130.64 231.66,130.98 225.75,130.98 C216.55,131.00 215.00,130.77 215.00,129.40 C215.00,127.96 217.09,120.32 223.11,99.75 L 225.08 93.00 L 234.54 93.00 C242.76,93.00 244.00,93.22 244.00,94.69 C244.00,99.31 238.54,129.60 237.59,130.23 ZM 269.00 93.00 L 269.00 131.00 L 257.00 131.00 C250.40,131.00 245.00,130.59 245.00,130.09 C245.00,129.59 246.12,121.45 247.50,112.00 C248.88,102.55 250.00,94.41 250.00,93.91 C250.00,93.41 254.27,93.00 259.50,93.00 ZM 327.07 112.25 L 331.76 131.00 L 308.26 131.00 L 307.19 125.25 C306.61,122.09 305.63,114.55 305.02,108.50 C304.41,102.45 303.70,96.47 303.43,95.21 C302.95,92.94 303.00,92.93 312.66,93.21 L 322.38 93.50 ZM 206.75 130.18 C204.60,131.54 185.00,131.18 185.00,129.77 C185.00,129.10 188.44,120.55 192.65,110.77 L 200.30 93.00 L 209.65 93.00 C214.79,93.00 219.00,93.24 219.00,93.54 C219.00,95.83 207.72,129.56 206.75,130.18 ZM 354.45 113.02 L 361.76 131.00 L 350.45 131.00 C340.54,131.00 339.07,130.78 338.61,129.25 C335.28,118.18 329.00,95.36 329.00,94.33 C329.00,92.70 345.51,92.41 346.51,94.02 C346.86,94.58 350.43,103.13 354.45,113.02 ZM 176.59 130.23 C174.92,131.36 154.00,131.16 154.00,130.02 C154.00,127.89 176.47,95.91 179.22,94.14 C181.52,92.65 191.17,91.68 192.79,92.78 C193.78,93.46 193.18,95.55 190.13,102.08 C187.96,106.71 184.27,114.78 181.93,120.00 C179.59,125.22 177.18,129.83 176.59,130.23 ZM 241.63 240.49 C243.90,242.75 246.75,242.32 248.65,239.41 C250.25,236.97 250.22,235.03 248.14,205.16 C246.09,175.83 245.77,173.37 243.85,171.75 C241.17,169.48 239.46,169.54 237.02,171.98 C235.68,173.32 235.19,174.85 235.50,176.73 C235.75,178.25 236.65,190.98 237.50,205.00 C239.35,235.68 239.69,238.54 241.63,240.49 ZM 268.65 239.81 C270.54,242.78 274.08,242.37 275.63,239.00 C276.36,237.40 277.03,225.13 277.47,204.94 C277.49,204.05 277.51,203.18 277.53,202.34 C278.06,178.27 278.17,173.18 275.84,171.53 C275.14,171.03 274.21,170.84 272.99,170.54 C271.48,170.16 269.72,170.48 268.50,171.38 C266.56,172.80 266.51,173.79 266.84,205.17 C267.11,231.52 267.45,237.93 268.65,239.81 ZM 296.65 240.17 C297.57,241.18 299.13,242.00 300.13,242.00 C303.65,242.00 304.79,238.05 306.03,221.50 C306.69,212.70 307.77,198.52 308.43,190.00 C309.09,181.48 309.26,173.74 308.81,172.82 C307.02,169.09 300.40,169.45 299.49,173.32 C298.84,176.09 295.00,227.85 295.00,233.84 C295.00,236.63 295.63,239.04 296.65,240.17 ZM 391.32 129.75 C391.94,130.72 389.70,131.00 381.26,131.00 C371.05,131.00 368.00,130.27 368.00,127.84 C368.00,127.43 364.62,119.64 360.50,110.53 C356.38,101.43 353.00,93.76 353.00,93.49 C353.00,92.24 364.74,93.13 366.73,94.52 C368.78,95.96 390.48,126.33 390.52,127.81 C390.52,128.19 390.89,129.06 391.32,129.75 ZM 172.70 347.40 C176.23,349.32 183.38,349.45 184.89,347.63 C186.76,345.38 185.12,343.00 181.72,343.00 C178.22,343.00 175.00,340.54 175.00,337.87 C175.00,335.30 178.62,333.31 184.75,332.50 L 190.00 331.81 L 190.00 348.12 L 197.50 347.50 L 197.78 334.14 C197.97,324.99 197.69,320.33 196.88,319.36 C195.95,318.24 196.16,317.46 197.85,315.66 C200.96,312.35 200.66,310.00 197.12,310.00 C195.54,310.00 193.73,310.62 193.10,311.38 C192.26,312.40 190.29,312.63 185.72,312.27 C176.93,311.57 171.38,313.23 170.71,316.75 C169.97,320.61 170.48,320.95 174.74,319.43 C183.04,316.47 190.52,318.40 189.80,323.32 C189.48,325.51 187.44,326.26 178.59,327.49 C172.20,328.38 168.00,332.29 168.00,337.36 C168.00,342.44 169.52,345.68 172.70,347.40 ZM 227.00 348.28 C229.73,349.31 234.02,349.02 237.47,347.58 C243.00,345.27 244.00,342.04 244.00,326.55 L 244.00 313.00 L 237.00 313.00 L 237.00 324.55 C237.00,337.08 235.80,341.30 231.93,342.31 C229.03,343.07 225.54,341.61 223.60,338.84 C222.35,337.06 222.00,333.96 222.00,324.78 L 222.00 313.00 L 214.00 313.00 L 214.00 348.00 L 216.59 348.00 C218.34,348.00 219.36,347.35 219.71,346.01 C220.22,344.07 220.28,344.06 222.86,345.87 C224.31,346.88 226.18,347.97 227.00,348.28 ZM 319.00 347.52 C323.97,350.40 332.15,348.47 335.30,343.67 C336.70,341.53 337.00,338.57 337.00,327.04 L 337.00 313.00 L 330.00 313.00 L 330.00 325.39 C330.00,335.94 329.73,338.12 328.16,340.06 C325.49,343.35 320.38,343.14 317.34,339.61 C315.17,337.08 315.00,336.03 315.00,324.94 L 315.00 313.00 L 307.00 313.00 L 307.00 348.00 L 309.45 348.00 C310.80,348.00 312.32,347.26 312.83,346.35 C313.76,344.67 314.22,344.76 319.00,347.52 ZM 425.00 313.00 L 425.00 348.13 L 431.50 347.50 L 432.05 336.00 C432.35,329.67 433.15,323.50 433.82,322.27 C436.23,317.90 441.26,316.77 444.96,319.77 C446.99,321.41 447.16,322.49 447.33,334.52 L 447.50 347.50 L 454.50 347.50 L 454.78 333.30 L 455.05 319.09 L 452.22 315.92 C448.37,311.62 441.03,310.74 435.04,313.86 C431.75,315.58 431.00,315.69 431.00,314.48 C431.00,313.50 429.99,313.00 428.00,313.00 ZM 266.42 347.64 C270.75,349.60 277.55,348.77 280.60,345.91 L 283.08 343.58 L 283.67 345.84 C284.12,347.58 284.87,348.04 286.88,347.80 L 289.50 347.50 L 290.05 313.00 L 283.00 313.00 L 283.00 323.35 C283.00,336.07 281.88,339.74 277.41,341.60 C273.65,343.17 269.68,342.22 268.64,339.49 C268.29,338.58 268.00,332.28 268.00,325.49 C268.00,312.14 267.85,311.82 262.25,312.83 C260.05,313.22 260.00,313.54 260.00,326.22 C260.00,341.07 261.27,345.30 266.42,347.64 ZM 98.50 347.66 C103.07,349.77 112.54,348.77 115.72,345.84 C120.04,341.86 121.00,338.08 121.00,325.03 L 121.00 313.00 L 113.00 313.00 L 113.00 325.93 C113.00,338.70 112.97,338.88 110.37,340.93 C106.87,343.68 103.45,343.55 100.45,340.55 C98.11,338.20 98.00,337.53 98.00,325.55 L 98.00 313.00 L 94.61 313.00 C92.74,313.00 91.00,313.56 90.75,314.25 C90.49,314.94 90.56,321.42 90.89,328.65 C91.56,343.04 92.25,344.77 98.50,347.66 ZM 388.00 347.67 C392.75,349.32 400.35,349.30 404.40,347.61 C408.78,345.78 411.00,342.45 411.00,337.73 C411.00,332.79 408.21,329.97 400.45,327.07 C393.45,324.45 392.00,323.39 392.00,320.90 C392.00,318.41 395.67,317.59 403.06,318.43 L 409.00 319.10 L 409.00 316.17 C409.00,313.70 408.52,313.15 405.88,312.62 C391.32,309.71 381.39,315.83 385.34,325.27 C386.42,327.85 388.00,329.27 391.64,330.90 C402.15,335.64 403.50,336.50 403.50,338.46 C403.50,339.55 402.30,341.09 400.82,341.93 C398.53,343.21 397.26,343.25 391.97,342.15 C388.57,341.45 385.62,341.05 385.42,341.25 C385.21,341.46 384.92,342.71 384.77,344.03 C384.55,345.99 385.16,346.67 388.00,347.67 ZM 146.71 347.38 C147.11,347.77 148.79,347.96 150.46,347.80 L 153.50 347.50 L 153.78 332.84 C154.04,318.65 153.98,318.08 151.68,315.41 C149.69,313.11 148.33,312.58 143.40,312.24 C135.38,311.68 131.77,313.13 132.18,316.75 C132.40,318.63 132.97,319.37 134.00,319.08 C134.82,318.85 137.20,318.46 139.27,318.22 C145.56,317.49 146.00,318.49 146.00,333.46 C146.00,340.72 146.32,346.99 146.71,347.38 ZM 363.00 334.26 L 363.00 348.13 L 369.50 347.50 L 369.79 333.50 C369.95,325.80 369.85,318.60 369.58,317.49 C368.81,314.36 363.84,312.00 358.03,312.00 C351.30,312.00 349.00,313.28 349.00,317.01 C349.00,319.75 349.17,319.89 351.57,318.98 C355.09,317.64 360.35,317.75 361.80,319.20 C362.62,320.02 363.00,324.81 363.00,334.26 ZM 215.69 307.36 C216.08,307.74 222.49,307.93 229.94,307.78 L 243.50 307.50 L 244.13 302.00 L 232.11 302.00 C225.12,302.00 219.03,302.49 217.55,303.16 C215.05,304.30 214.31,305.98 215.69,307.36 ZM 262.00 306.19 C262.00,307.94 262.89,308.04 275.75,307.78 L 289.50 307.50 L 289.82 304.75 L 290.13 302.00 L 278.61 302.00 C266.36,302.00 262.00,303.10 262.00,306.19 ZM 396.67 308.33 C398.10,309.77 401.03,308.88 402.56,306.56 C403.68,304.84 405.25,304.02 407.83,303.81 C410.76,303.56 411.56,303.05 411.82,301.25 C412.12,299.13 411.79,299.00 406.00,299.00 C398.09,299.00 396.00,300.12 396.00,304.37 C396.00,306.18 396.30,307.97 396.67,308.33 Z" fill="rgb(20,40,59)"/>
<path d="M 166.75 133.23 C159.13,133.14 153.80,133.02 150.23,132.83 C151.29,132.65 152.00,132.35 152.00,132.01 C152.00,131.46 153.46,129.04 155.25,126.63 C156.14,125.44 157.99,122.86 160.27,119.65 C156.67,125.01 154.00,129.28 154.00,130.02 C154.00,131.16 174.92,131.36 176.59,130.23 C177.18,129.83 179.59,125.22 181.93,120.00 C183.20,117.17 184.86,113.50 186.47,110.00 C181.96,119.88 178.12,128.75 177.53,130.75 C176.94,132.73 177.22,133.00 179.86,133.00 C179.95,133.00 180.04,133.00 180.13,133.00 C180.62,133.00 181.03,133.01 181.41,132.91 C183.14,132.48 184.39,130.06 190.12,116.72 C187.15,123.80 185.00,129.24 185.00,129.77 C185.00,131.18 204.60,131.54 206.75,130.18 C207.29,129.83 211.01,119.26 214.22,109.54 C213.94,110.44 213.66,111.35 213.37,112.28 C210.28,122.30 207.69,130.95 207.62,131.50 C207.56,132.05 208.85,132.50 210.50,132.50 C210.68,132.50 210.85,132.51 211.01,132.51 C211.38,132.53 211.71,132.54 212.01,132.46 C213.51,132.08 214.45,129.48 219.04,113.78 C216.11,124.02 215.00,128.35 215.00,129.40 C215.00,130.77 216.55,131.00 225.75,130.98 C231.66,130.98 236.99,130.64 237.59,130.23 C238.10,129.89 239.91,120.99 241.48,112.11 C241.31,113.16 241.15,114.17 240.99,115.12 C238.83,128.40 238.31,131.58 239.42,132.31 C239.76,132.54 240.27,132.52 240.93,132.51 C241.11,132.50 241.30,132.50 241.50,132.50 L 244.50 132.50 L 247.34 113.01 C247.50,111.85 247.67,110.72 247.85,109.61 C247.73,110.39 247.62,111.19 247.50,112.00 C246.12,121.45 245.00,129.59 245.00,130.09 C245.00,130.59 250.40,131.00 257.00,131.00 L 269.00 131.00 L 269.00 93.00 L 259.50 93.00 C255.77,93.00 252.53,93.21 250.97,93.51 C251.12,93.07 251.24,92.81 251.34,92.75 C251.98,92.33 256.55,92.11 261.50,92.25 L 270.50 92.50 L 270.69 112.50 L 270.88 132.50 L 276.12 132.50 L 276.31 112.50 L 276.50 92.50 L 297.50 92.50 L 297.55 93.00 L 277.00 93.00 L 277.00 131.00 L 301.13 131.00 C301.54,132.93 302.19,133.00 303.92,133.00 C305.43,133.00 306.88,132.78 307.15,132.52 C307.39,132.28 306.74,124.60 305.77,115.22 C306.27,119.34 306.81,123.21 307.19,125.25 L 308.26 131.00 L 331.76 131.00 L 327.07 112.25 C329.61,122.40 332.00,131.20 332.40,131.83 C333.36,133.39 337.94,133.33 338.53,131.75 C338.72,131.25 337.70,126.70 336.08,120.58 C337.00,123.80 337.87,126.81 338.61,129.25 C339.07,130.78 340.54,131.00 350.45,131.00 L 361.76 131.00 L 359.66 125.82 C362.61,132.86 363.21,132.99 365.58,133.00 C367.28,133.00 368.93,132.73 369.26,132.41 C369.46,132.21 369.24,131.20 368.56,129.29 C369.83,130.58 373.45,131.00 381.26,131.00 C389.70,131.00 391.94,130.72 391.32,129.75 C390.89,129.06 390.52,128.19 390.52,127.81 C390.50,127.24 387.23,122.32 383.12,116.44 C387.85,123.12 391.78,128.40 392.47,128.97 C393.31,129.67 394.00,130.86 394.00,131.62 C394.00,132.06 394.51,132.41 395.27,132.65 C389.06,132.90 378.61,133.06 366.18,133.08 C347.11,133.10 330.83,133.14 330.00,133.15 C329.17,133.17 308.70,133.17 284.50,133.16 C260.30,133.14 239.82,133.13 239.00,133.14 C238.18,133.14 227.01,133.10 214.19,133.05 C201.37,133.00 190.57,133.08 190.19,133.23 C189.81,133.38 179.26,133.38 166.75,133.23 ZM 354.45 113.02 C350.43,103.13 346.86,94.58 346.51,94.02 C346.16,93.45 343.90,93.12 341.11,93.00 L 346.11 93.00 L 348.39 98.25 C349.64,101.14 353.33,110.14 356.58,118.25 L 356.87 118.96 ZM 380.89 113.27 C374.94,104.87 368.18,95.75 366.82,94.59 C368.22,95.76 374.00,103.38 379.91,111.86 C380.23,112.34 380.56,112.81 380.89,113.27 ZM 303.31 93.92 L 303.18 92.93 L 312.78 93.21 L 322.38 93.50 L 312.66 93.21 C305.38,93.00 303.55,92.95 303.31,93.92 ZM 329.00 94.32 L 329.00 94.31 C329.00,93.44 330.71,93.08 335.61,93.01 C332.06,93.17 329.02,93.62 329.00,94.32 ZM 298.77 106.38 C299.39,113.15 300.14,121.35 300.49,125.35 C300.12,121.92 299.45,114.68 298.89,107.75 ZM 357.87 104.69 C355.17,98.77 353.00,93.81 353.00,93.53 C353.00,93.52 353.00,93.51 353.00,93.50 C353.07,93.85 355.08,98.46 357.87,104.69 ZM 304.70 105.40 C304.36,102.43 304.01,99.49 303.66,96.71 L 303.58 96.08 C303.84,97.82 304.27,101.41 304.70,105.40 ZM 195.95 103.11 L 200.28 93.00 L 200.30 93.00 ZM 331.66 104.74 C330.19,99.43 329.16,95.42 329.02,94.48 C329.16,95.37 330.22,99.47 331.66,104.74 ZM 178.54 94.75 C178.85,94.42 179.08,94.20 179.22,94.11 C180.41,93.36 183.51,92.74 186.48,92.47 C183.51,92.75 180.40,93.37 179.22,94.14 C179.06,94.24 178.83,94.45 178.54,94.75 ZM 155.72 113.18 C149.14,123.02 144.05,131.08 144.01,131.74 L 144.01 131.73 C144.02,131.12 149.12,123.05 155.72,113.18 ZM 367.97 127.72 C367.53,126.57 366.97,125.20 366.29,123.60 C367.23,125.79 367.84,127.28 367.97,127.72 ZM 243.65 93.78 C242.88,93.12 240.62,93.00 234.54,93.00 C240.69,93.00 242.90,93.11 243.65,93.78 ZM 359.53 93.05 C362.58,93.29 365.75,93.84 366.71,94.51 C365.74,93.85 362.57,93.30 359.53,93.05 ZM 219.00 93.53 C218.96,93.26 215.27,93.03 210.60,93.00 C215.30,93.03 219.00,93.25 219.00,93.53 C219.00,93.53 219.00,93.53 219.00,93.53 ZM 244.00 94.89 C244.00,94.84 244.00,94.79 244.00,94.74 C244.00,94.76 244.00,94.77 244.00,94.78 C244.00,94.81 244.00,94.85 244.00,94.89 Z" fill="rgb(89,103,115)"/>
<path d="M 371.27 151.43 C369.53,150.13 368.14,148.30 367.16,145.97 C366.25,143.80 365.17,142.02 364.78,142.01 C364.38,142.00 363.39,143.28 362.58,144.85 C361.77,146.42 359.49,149.12 357.52,150.85 C357.02,151.29 356.56,151.67 356.13,152.00 C356.83,151.40 357.63,150.63 358.63,149.63 C361.58,146.69 363.00,144.41 363.00,142.63 C363.00,139.67 364.77,139.07 365.60,141.75 C367.02,146.33 368.84,149.50 371.27,151.43 ZM 181.61 143.99 C182.47,146.13 184.65,149.19 186.51,150.87 C184.67,149.22 182.67,146.61 182.00,145.00 C180.42,141.17 178.35,141.15 177.51,144.96 C177.40,145.46 177.15,146.07 176.79,146.71 C177.19,145.83 177.47,144.89 177.63,143.89 C178.43,138.93 179.60,138.96 181.61,143.99 ZM 167.04 153.94 C168.89,153.62 170.69,152.92 172.26,151.90 C170.55,153.24 169.21,153.77 167.04,153.94 ZM 157.23 151.53 C155.08,149.90 153.22,147.39 151.43,143.87 C152.79,146.55 155.31,149.92 157.03,151.37 C157.09,151.43 157.16,151.48 157.23,151.53 ZM 349.08 154.00 L 349.00 154.00 C347.23,154.00 345.95,153.90 344.83,153.58 C345.96,153.90 347.26,154.00 349.08,154.00 Z" fill="rgb(162,170,178)"/>
<path d="M 98.50 347.66 C92.25,344.77 91.56,343.04 90.89,328.65 C90.56,321.42 90.49,314.94 90.75,314.25 C91.00,313.56 92.74,313.00 94.61,313.00 L 98.00 313.00 L 98.00 325.55 C98.00,337.53 98.11,338.20 100.45,340.55 C103.45,343.55 106.87,343.68 110.37,340.93 C112.97,338.88 113.00,338.70 113.00,325.93 L 113.00 313.00 L 117.00 313.00 L 121.00 313.00 L 121.00 325.03 C121.00,338.08 120.04,341.86 115.72,345.84 C112.54,348.77 103.07,349.77 98.50,347.66 ZM 172.70 347.40 C169.52,345.68 168.00,342.44 168.00,337.36 C168.00,332.29 172.20,328.38 178.59,327.49 C187.44,326.26 189.48,325.51 189.80,323.32 C190.52,318.40 183.04,316.47 174.74,319.43 C170.48,320.95 169.97,320.61 170.71,316.75 C171.38,313.23 176.93,311.57 185.72,312.27 C190.29,312.63 192.26,312.40 193.10,311.38 C193.73,310.62 195.54,310.00 197.12,310.00 C200.66,310.00 200.96,312.35 197.85,315.66 C196.16,317.46 195.95,318.24 196.88,319.36 C197.69,320.33 197.97,324.99 197.78,334.14 L 197.50 347.50 L 193.75 347.81 L 190.00 348.12 L 190.00 339.97 L 190.00 331.81 L 184.75 332.50 C178.62,333.31 175.00,335.30 175.00,337.87 C175.00,340.54 178.22,343.00 181.72,343.00 C185.12,343.00 186.76,345.38 184.89,347.63 C183.38,349.45 176.23,349.32 172.70,347.40 ZM 227.00 348.28 C226.18,347.97 224.31,346.88 222.86,345.87 C220.28,344.06 220.22,344.07 219.71,346.01 C219.36,347.35 218.34,348.00 216.59,348.00 L 214.00 348.00 L 214.00 330.50 L 214.00 313.00 L 218.00 313.00 L 222.00 313.00 L 222.00 324.78 C222.00,333.96 222.35,337.06 223.60,338.84 C225.54,341.61 229.03,343.07 231.93,342.31 C235.80,341.30 237.00,337.08 237.00,324.55 L 237.00 313.00 L 240.50 313.00 L 244.00 313.00 L 244.00 326.55 C244.00,342.04 243.00,345.27 237.47,347.58 C234.02,349.02 229.73,349.31 227.00,348.28 ZM 266.42 347.64 C261.27,345.30 260.00,341.07 260.00,326.22 C260.00,313.54 260.05,313.22 262.25,312.83 C267.85,311.82 268.00,312.14 268.00,325.49 C268.00,332.28 268.29,338.58 268.64,339.49 C269.68,342.22 273.65,343.17 277.41,341.60 C281.88,339.74 283.00,336.07 283.00,323.35 L 283.00 313.00 L 286.52 313.00 L 290.05 313.00 L 289.77 330.25 L 289.50 347.50 L 286.88 347.80 C284.87,348.04 284.12,347.58 283.67,345.84 L 283.08 343.58 L 280.60 345.91 C277.55,348.77 270.75,349.60 266.42,347.64 ZM 319.00 347.52 C314.22,344.76 313.76,344.67 312.83,346.35 C312.32,347.26 310.80,348.00 309.45,348.00 L 307.00 348.00 L 307.00 330.50 L 307.00 313.00 L 311.00 313.00 L 315.00 313.00 L 315.00 324.94 C315.00,336.03 315.17,337.08 317.34,339.61 C320.38,343.14 325.49,343.35 328.16,340.06 C329.73,338.12 330.00,335.94 330.00,325.39 L 330.00 313.00 L 333.50 313.00 L 337.00 313.00 L 337.00 327.04 C337.00,338.57 336.70,341.53 335.30,343.67 C332.15,348.47 323.97,350.40 319.00,347.52 ZM 388.00 347.67 C385.16,346.67 384.55,345.99 384.77,344.03 C384.92,342.71 385.21,341.46 385.42,341.25 C385.62,341.05 388.57,341.45 391.97,342.15 C397.26,343.25 398.53,343.21 400.82,341.93 C402.30,341.09 403.50,339.55 403.50,338.46 C403.50,336.50 402.15,335.64 391.64,330.90 C388.00,329.27 386.42,327.85 385.34,325.27 C381.39,315.83 391.32,309.71 405.88,312.62 C408.52,313.15 409.00,313.70 409.00,316.17 L 409.00 319.10 L 403.06 318.43 C395.67,317.59 392.00,318.41 392.00,320.90 C392.00,323.39 393.45,324.45 400.45,327.07 C408.21,329.97 411.00,332.79 411.00,337.73 C411.00,342.45 408.78,345.78 404.40,347.61 C400.35,349.30 392.75,349.32 388.00,347.67 ZM 146.71 347.38 C146.32,346.99 146.00,340.72 146.00,333.46 C146.00,318.49 145.56,317.49 139.27,318.22 C137.20,318.46 134.82,318.85 134.00,319.08 C132.97,319.37 132.40,318.63 132.18,316.75 C131.77,313.13 135.38,311.68 143.40,312.24 C148.33,312.58 149.69,313.11 151.68,315.41 C153.98,318.08 154.04,318.65 153.78,332.84 L 153.50 347.50 L 150.46 347.80 C148.79,347.96 147.11,347.77 146.71,347.38 ZM 363.00 334.26 C363.00,324.81 362.62,320.02 361.80,319.20 C360.35,317.75 355.09,317.64 351.57,318.98 C349.17,319.89 349.00,319.75 349.00,317.01 C349.00,313.28 351.30,312.00 358.03,312.00 C363.84,312.00 368.81,314.36 369.58,317.49 C369.85,318.60 369.95,325.80 369.79,333.50 L 369.50 347.50 L 366.25 347.81 L 363.00 348.13 L 363.00 334.26 ZM 425.00 330.56 L 425.00 313.00 L 428.00 313.00 C429.99,313.00 431.00,313.50 431.00,314.48 C431.00,315.69 431.75,315.58 435.04,313.86 C441.03,310.74 448.37,311.62 452.22,315.92 L 455.05 319.09 L 454.78 333.30 L 454.50 347.50 L 451.00 347.50 L 447.50 347.50 L 447.33 334.52 C447.16,322.49 446.99,321.41 444.96,319.77 C441.26,316.77 436.23,317.90 433.82,322.27 C433.15,323.50 432.35,329.67 432.05,336.00 L 431.50 347.50 L 428.25 347.81 L 425.00 348.13 L 425.00 330.56 ZM 396.67 308.33 C396.30,307.97 396.00,306.18 396.00,304.37 C396.00,300.12 398.09,299.00 406.00,299.00 C411.79,299.00 412.12,299.13 411.82,301.25 C411.56,303.05 410.76,303.56 407.83,303.81 C405.25,304.02 403.68,304.84 402.56,306.56 C401.03,308.88 398.10,309.77 396.67,308.33 ZM 215.69 307.36 C214.31,305.98 215.05,304.30 217.55,303.16 C219.03,302.49 225.12,302.00 232.11,302.00 L 244.13 302.00 L 243.82 304.75 L 243.50 307.50 L 229.94 307.78 C222.49,307.93 216.08,307.74 215.69,307.36 ZM 262.00 306.19 C262.00,303.10 266.36,302.00 278.61,302.00 L 290.13 302.00 L 289.82 304.75 L 289.50 307.50 L 275.75 307.78 C262.89,308.04 262.00,307.94 262.00,306.19 ZM 191.26 270.04 C187.12,269.04 181.37,264.66 178.92,260.63 C177.57,258.42 177.01,255.64 177.00,251.13 C177.00,242.05 174.55,226.41 164.86,173.63 C162.72,161.98 162.62,161.74 159.46,160.42 C155.15,158.62 150.26,154.40 148.46,150.93 C146.82,147.75 146.47,139.00 147.98,139.00 C148.52,139.00 150.08,141.19 151.43,143.87 C155.07,151.05 159.04,154.00 165.04,154.00 C169.06,154.00 170.55,153.46 173.39,150.96 C175.30,149.29 177.15,146.59 177.51,144.96 C178.35,141.15 180.42,141.17 182.00,145.00 C182.69,146.66 184.78,149.36 186.66,151.00 C189.46,153.47 190.95,154.00 195.00,154.00 C199.13,154.00 200.53,153.48 203.62,150.76 C205.65,148.98 208.12,145.72 209.11,143.52 L 210.90 139.51 L 212.99 144.23 C218.93,157.68 234.74,157.16 239.49,143.35 L 240.79 139.57 L 243.01 144.29 C246.25,151.20 250.03,154.00 256.07,154.00 C260.32,154.00 261.54,153.51 264.96,150.41 C267.15,148.44 269.49,145.29 270.17,143.41 C271.70,139.18 272.57,139.10 273.37,143.12 C273.72,144.83 275.74,147.98 277.88,150.12 C281.39,153.62 282.27,154.00 286.90,154.00 C291.51,154.00 292.50,153.58 296.38,150.01 C298.76,147.81 301.14,144.55 301.68,142.76 L 302.65 139.50 L 305.07 144.49 C311.22,157.13 325.17,157.32 331.39,144.84 L 333.92 139.76 L 335.56 143.87 C336.47,146.13 338.75,149.33 340.64,150.99 C343.46,153.47 344.94,154.00 349.00,154.00 C353.10,154.00 354.53,153.47 357.52,150.85 C359.49,149.12 361.77,146.42 362.58,144.85 C363.39,143.28 364.38,142.00 364.78,142.01 C365.17,142.02 366.25,143.80 367.16,145.97 C369.48,151.49 374.13,154.23 380.30,153.70 C386.00,153.21 390.24,149.77 393.18,143.25 C394.23,140.91 395.51,139.00 396.03,139.00 C397.68,139.00 398.30,144.06 397.13,147.97 C395.93,151.97 388.20,160.00 385.54,160.00 C383.80,160.00 383.69,160.40 380.95,177.00 C379.81,183.88 376.83,200.30 374.32,213.50 C371.82,226.70 369.46,242.11 369.07,247.75 C368.45,256.89 368.05,258.47 365.42,262.25 C363.79,264.59 360.67,267.40 358.48,268.50 C354.61,270.45 352.34,270.50 274.50,270.66 C230.50,270.75 193.04,270.47 191.26,270.04 ZM 354.85 257.47 C356.50,256.08 358.08,253.72 358.36,252.22 C358.64,250.73 359.14,247.81 359.48,245.75 L 360.09 242.00 L 343.20 242.00 C320.45,242.00 321.90,243.94 325.33,218.25 C326.78,207.39 328.47,192.88 329.09,186.00 C329.72,179.12 330.64,172.71 331.15,171.75 C331.97,170.19 333.98,169.99 349.79,169.92 C370.07,169.84 370.99,169.73 372.72,167.36 C375.47,163.61 374.30,160.68 368.87,157.69 L 363.77 154.87 L 361.63 156.87 C356.33,161.84 346.48,162.47 338.88,158.34 L 333.99 155.68 L 328.73 158.34 C321.38,162.06 315.01,161.95 307.46,157.98 C302.33,155.28 301.53,155.11 300.07,156.44 C294.29,161.67 283.97,162.41 276.51,158.12 L 271.53 155.25 L 266.22 158.24 C261.60,160.85 260.17,161.18 255.04,160.81 C250.67,160.49 248.11,159.65 245.07,157.55 C241.36,154.98 240.81,154.85 239.24,156.24 C232.72,161.95 223.50,162.60 215.23,157.94 C210.43,155.23 209.61,155.04 208.15,156.31 C201.98,161.71 192.59,162.53 184.90,158.35 L 180.04 155.70 L 175.50 158.10 C171.30,160.32 171.01,160.73 171.60,163.50 C173.04,170.26 172.18,170.00 193.01,170.00 C211.57,170.00 211.98,170.05 213.37,172.25 C214.69,174.34 216.86,191.33 220.15,225.21 C221.86,242.72 222.64,242.00 201.85,242.00 L 186.00 242.00 L 186.04 247.25 C186.08,253.20 187.63,256.68 191.11,258.60 C193.04,259.67 208.88,259.94 272.67,259.96 L 351.85 260.00 L 354.85 257.47 ZM 144.01 131.75 C144.02,131.06 150.22,121.32 157.79,110.10 C170.45,91.34 171.99,89.46 177.03,86.60 L 182.50 83.50 L 205.00 83.50 L 227.50 83.50 L 228.00 66.95 C228.42,53.17 228.81,49.94 230.33,47.62 C233.96,42.08 235.49,41.91 277.48,42.22 C314.45,42.49 315.96,42.58 318.62,44.56 C324.99,49.32 325.46,50.79 326.00,67.71 L 326.50 83.29 L 344.00 83.40 C360.00,83.49 361.93,83.70 366.46,85.79 C373.22,88.90 373.89,89.61 384.13,104.48 C397.90,124.48 402.05,131.11 401.44,132.09 C400.51,133.60 394.00,133.19 394.00,131.62 C394.00,130.86 393.31,129.67 392.47,128.97 C391.63,128.28 385.97,120.58 379.91,111.86 C373.84,103.15 367.90,95.34 366.71,94.51 C364.70,93.10 353.00,92.26 353.00,93.53 C353.00,93.82 355.31,99.11 358.14,105.28 C366.57,123.70 369.88,131.79 369.26,132.41 C368.93,132.73 367.28,133.00 365.58,133.00 C362.55,132.99 362.41,132.77 356.58,118.25 C353.33,110.14 349.64,101.14 348.39,98.25 L 346.11 93.00 L 337.56 93.00 C331.16,93.00 329.00,93.33 329.00,94.31 C329.00,95.04 331.25,103.47 334.00,113.06 C336.75,122.65 338.79,131.06 338.53,131.75 C337.94,133.33 333.36,133.39 332.40,131.83 C332.00,131.19 329.59,122.31 327.03,112.08 L 322.38 93.50 L 312.78 93.21 L 303.18 92.93 L 303.66 96.71 C305.57,111.83 307.54,132.12 307.15,132.52 C306.88,132.78 305.43,133.00 303.92,133.00 C301.23,133.00 301.16,132.84 300.53,125.75 C300.18,121.76 299.35,112.65 298.69,105.50 L 297.50 92.50 L 287.00 92.50 L 276.50 92.50 L 276.31 112.50 L 276.12 132.50 L 273.50 132.50 L 270.88 132.50 L 270.69 112.50 L 270.50 92.50 L 261.50 92.25 C256.55,92.11 251.98,92.33 251.34,92.75 C250.70,93.17 248.90,102.28 247.34,113.01 L 244.50 132.50 L 241.50 132.50 C237.96,132.50 237.96,133.84 241.57,111.53 C242.91,103.30 244.00,95.77 244.00,94.78 C244.00,93.20 242.95,93.00 234.54,93.00 L 225.08 93.00 L 222.98 100.25 C213.02,134.49 213.78,132.50 210.50,132.50 C208.85,132.50 207.56,132.05 207.62,131.50 C207.69,130.95 210.28,122.30 213.37,112.28 C216.47,102.25 219.00,93.81 219.00,93.53 C219.00,93.24 214.79,93.00 209.64,93.00 L 200.28 93.00 L 193.97 107.75 C182.84,133.73 183.25,133.00 179.86,133.00 C177.22,133.00 176.94,132.73 177.53,130.75 C178.28,128.22 184.21,114.72 190.13,102.08 C193.18,95.55 193.78,93.46 192.79,92.78 C191.19,91.70 181.55,92.64 179.22,94.11 C178.27,94.70 173.23,101.28 168.00,108.72 C162.77,116.16 157.04,124.22 155.25,126.63 C153.46,129.04 152.00,131.46 152.00,132.01 C152.00,132.55 150.20,133.00 148.00,133.00 C145.46,133.00 144.00,132.54 144.01,131.75 ZM 312.82 79.54 C313.31,73.62 312.15,69.06 309.48,66.39 L 307.09 64.00 L 276.60 64.00 C246.19,64.00 246.10,64.01 243.43,66.31 C241.35,68.09 240.63,69.78 240.25,73.75 C239.98,76.58 240.05,80.05 240.40,81.46 L 241.04 84.03 L 276.77 83.76 L 312.50 83.50 L 312.82 79.54 ZM 241.63 240.49 C239.69,238.54 239.35,235.68 237.50,205.00 C236.65,190.98 235.75,178.25 235.50,176.73 C235.19,174.85 235.68,173.32 237.02,171.98 C239.46,169.54 241.17,169.48 243.85,171.75 C245.77,173.37 246.09,175.83 248.14,205.16 C250.22,235.03 250.25,236.97 248.65,239.41 C246.75,242.32 243.90,242.75 241.63,240.49 ZM 268.65 239.81 C267.45,237.93 267.11,231.52 266.84,205.17 C266.51,173.79 266.56,172.80 268.50,171.38 C269.72,170.48 271.48,170.16 272.99,170.54 C278.34,171.88 278.22,170.93 277.47,204.94 C277.03,225.13 276.36,237.40 275.63,239.00 C274.08,242.37 270.54,242.78 268.65,239.81 ZM 296.65 240.17 C295.63,239.04 295.00,236.63 295.00,233.84 C295.00,227.85 298.84,176.09 299.49,173.32 C300.40,169.45 307.02,169.09 308.81,172.82 C309.26,173.74 309.09,181.48 308.43,190.00 C307.77,198.52 306.69,212.70 306.03,221.50 C304.79,238.05 303.65,242.00 300.13,242.00 C299.13,242.00 297.57,241.18 296.65,240.17 Z" fill="rgb(250,252,252)"/>
</g>
</svg>